/* XPM */
static char * close_inactive_xpm[] = {
"28 37 20 1",
" 	c #282A36",
".	c #302D3A",
"+	c #414458",
"@	c #35303C",
"#	c #2C2C38",
"$	c #3A313E",
"%	c #292B37",
"&	c #36303C",
"*	c #3D333F",
"=	c #312E3A",
"-	c #3E3440",
";	c #2A2B37",
">	c #2F2D39",
",	c #3F3441",
"'	c #3F3340",
")	c #38313E",
"!	c #3F3341",
"~	c #4E3948",
"{	c #443544",
"]	c #453644",
"                            ",
"                            ",
"                            ",
"                            ",
"                            ",
"                            ",
"                            ",
"                            ",
"                            ",
"                            ",
"                            ",
"        .++@    #++$%       ",
"       &++++*  =+++++       ",
"       ++++++-;++++++       ",
"       ++++++++++++++       ",
"       ++++++++++++++       ",
"       >++++++++++++,       ",
"        %++++++++++'        ",
"         )+++++++++         ",
"        %++++++++++!        ",
"       >++++++++++++,       ",
"       ++++++++++++++       ",
"       ++++++++++++++       ",
"       ++++++-;++++++       ",
"       &++++*  =++++~       ",
"        .{]@    #,]$%       ",
"                            ",
"                            ",
"                            ",
"                            ",
"                            ",
"                            ",
"                            ",
"                            ",
"                            ",
"                            ",
"                            "};
