/* XPM */
static char * close_active_xpm[] = {
"28 37 60 1",
" 	c None",
".	c #282A36",
"+	c #302D3A",
"@	c #443544",
"#	c #453644",
"$	c #35303C",
"%	c #2C2C38",
"&	c #3F3441",
"*	c #3A313E",
"=	c #292B37",
"-	c #36303C",
";	c #8C5465",
">	c #E1788F",
",	c #E1788E",
"'	c #A76072",
")	c #3D333F",
"!	c #312E3A",
"~	c #764B5A",
"{	c #D07186",
"]	c #E67A91",
"^	c #BD687C",
"/	c #4E3948",
"(	c #684555",
"_	c #F37F97",
":	c #F17E96",
"<	c #3E3440",
"[	c #2A2B37",
"}	c #7A4C5C",
"|	c #DF778D",
"1	c #A75F72",
"2	c #7E4E5E",
"3	c #EE7D94",
"4	c #F07E96",
"5	c #B26477",
"6	c #895364",
"7	c #EC7C93",
"8	c #CA6F83",
"9	c #5A3F4E",
"0	c #D77489",
"a	c #F27F97",
"b	c #F27E96",
"c	c #905667",
"d	c #2F2D39",
"e	c #764B5C",
"f	c #EF7E95",
"g	c #F27F96",
"h	c #B7667A",
"i	c #774C5C",
"j	c #F07E95",
"k	c #A96073",
"l	c #3F3340",
"m	c #38313E",
"n	c #AE6276",
"o	c #E5798F",
"p	c #573D4C",
"q	c #784C5C",
"r	c #E0788F",
"s	c #AA6074",
"t	c #3F3341",
"u	c #B8657A",
"............................",
"............................",
"............................",
"............................",
"............................",
"............................",
"............................",
"............................",
"............................",
"............................",
"............................",
"........+@#$....%&#*=.......",
".......-;>,')..!~{]^/.......",
".......(>__:'<[}|___1.......",
".......23___4567____8.......",
".......90____a:____bc.......",
".......def________gh&.......",
"........=i,______jkl........",
".........mna_____op.........",
"........=qr______jst........",
".......dej________gu&.......",
".......90____a:____bc.......",
".......23___4567____8.......",
".......(>__:'<[}|___1.......",
".......-;>,')..!~{]^/.......",
"........+@#$....%&#*=.......",
"............................",
"............................",
"............................",
"............................",
"............................",
"............................",
"............................",
"............................",
"............................",
"............................",
"............................"};
