/* XPM */
static char * hide_active_xpm[] = {
"28 37 48 1",
" 	c None",
".	c #282A36",
"+	c #292A37",
"@	c #2D2C3C",
"#	c #2C2C3B",
"$	c #513D62",
"%	c #7D5291",
"&	c #493959",
"*	c #AD68C4",
"=	c #C473DC",
"-	c #2D2D3B",
";	c #9960AF",
">	c #C574DD",
",	c #5D436E",
"'	c #C172D9",
")	c #3B3349",
"!	c #9C61B1",
"~	c #C574DC",
"{	c #9C60B1",
"]	c #3A324A",
"^	c #2D2C3B",
"/	c #744D87",
"(	c #C172D8",
"_	c #764E89",
":	c #453754",
"<	c #AF69C6",
"[	c #AF6AC5",
"}	c #453756",
"|	c #845597",
"1	c #C474DC",
"2	c #845598",
"3	c #513E62",
"4	c #BD70D5",
"5	c #BE71D6",
"6	c #533E63",
"7	c #2B2B39",
"8	c #88569C",
"9	c #C373DB",
"0	c #925CA7",
"a	c #614572",
"b	c #B96ED0",
"c	c #2E2D3C",
"d	c #644674",
"e	c #88579D",
"f	c #8F5AA3",
"g	c #2A2A37",
"h	c #312E3F",
"i	c #322E40",
"............................",
"............................",
"............................",
"............................",
"............................",
"............................",
"............................",
"............................",
"............................",
"............................",
"............................",
"............+@@+............",
"...........#$%%$#...........",
"...........&*==*&...........",
"..........-;>>>>;-..........",
"..........,'>>>>',..........",
".........)!~>>>>~{].........",
"........^/(>>>>>>'_^........",
"........:<>>>>>>>>[}........",
".......+|=>>>>>>>>12+.......",
".......34>>>>>>>>>>56.......",
"......789>>>>>>>>>>987......",
"......^0>>>>>>>>>>>>0^......",
".......ab>>>>>>>>>>ba.......",
".......cdeffffffffedc.......",
"........ghiiiiiiiihg........",
"............................",
"............................",
"............................",
"............................",
"............................",
"............................",
"............................",
"............................",
"............................",
"............................",
"............................"};
