/* XPM */
static char * hide_inactive_xpm[] = {
"28 37 17 1",
" 	c None",
".	c #282A36",
"+	c #292A37",
"@	c #2D2C3C",
"#	c #2C2C3B",
"$	c #414458",
"%	c #493959",
"&	c #2D2D3B",
"*	c #3B3349",
"=	c #3A324A",
"-	c #2D2C3B",
";	c #453756",
">	c #2B2B39",
",	c #2E2D3C",
"'	c #2A2A37",
")	c #312E3F",
"!	c #322E40",
"............................",
"............................",
"............................",
"............................",
"............................",
"............................",
"............................",
"............................",
"............................",
"............................",
"............................",
"............+@@+............",
"...........#$$$$#...........",
"...........%$$$$%...........",
"..........&$$$$$$&..........",
"..........$$$$$$$$..........",
".........*$$$$$$$$=.........",
"........-$$$$$$$$$$-........",
"........$$$$$$$$$$$;........",
".......+$$$$$$$$$$$$+.......",
".......$$$$$$$$$$$$$$.......",
"......>$$$$$$$$$$$$$$>......",
"......-$$$$$$$$$$$$$$-......",
".......$$$$$$$$$$$$$$.......",
".......,$$$$$$$$$$$$,.......",
"........')!!!!!!!!)'........",
"............................",
"............................",
"............................",
"............................",
"............................",
"............................",
"............................",
"............................",
"............................",
"............................",
"............................"};
