/* XPM */
static char * maximize_inactive_xpm[] = {
"28 37 30 1",
" 	c None",
".	c #282A36",
"+	c #292B37",
"@	c #2B323E",
"#	c #303C49",
"$	c #31404C",
"%	c #313E4A",
"&	c #2D3540",
"*	c #292B38",
"=	c #2A303B",
"-	c #414458",
";	c #2D3743",
">	c #2B303B",
",	c #2D3541",
"'	c #2B323D",
")	c #2C3542",
"!	c #292C38",
"~	c #292D39",
"{	c #2E3844",
"]	c #2B313D",
"^	c #354955",
"/	c #364D59",
"(	c #2E3744",
"_	c #2D3642",
":	c #2B2F3C",
"<	c #2A2F3C",
"[	c #2D3742",
"}	c #282B37",
"|	c #2B313E",
"1	c #2C3440",
"............................",
"............................",
"............................",
"............................",
"............................",
"............................",
"............................",
"............................",
"............................",
"............................",
"............................",
"..........+@#$%&*...........",
".........=-------;..........",
"........>---------,.........",
".......'-----------)........",
".......-------------!.......",
"......~-------------{.......",
"......]-------------^.......",
"......@-------------/.......",
"......]-------------^.......",
"......~-------------(.......",
".......-------------!.......",
".......'-----------_........",
"........:---------,.........",
".........<-------[..........",
"..........}|#$%1+...........",
"............................",
"............................",
"............................",
"............................",
"............................",
"............................",
"............................",
"............................",
"............................",
"............................",
"............................"};
