/* XPM */
static char * maximize_active_xpm[] = {
"28 37 75 1",
" 	c None",
".	c #282A36",
"+	c #292B37",
"@	c #2B323E",
"#	c #303C49",
"$	c #31404C",
"%	c #313E4A",
"&	c #2D3540",
"*	c #292B38",
"=	c #2A303B",
"-	c #40616E",
";	c #5594A0",
">	c #66BBC8",
",	c #6BC7D5",
"'	c #68C0CE",
")	c #599DAA",
"!	c #436A76",
"~	c #2D3743",
"{	c #2B303B",
"]	c #4F8592",
"^	c #70D1DF",
"/	c #78E5F2",
"(	c #79E6F3",
"_	c #79E5F2",
":	c #72D7E4",
"<	c #5A9EAB",
"[	c #2D3541",
"}	c #2B323D",
"|	c #4F8693",
"1	c #75DDEA",
"2	c #78E4F1",
"3	c #5BA2AE",
"4	c #2C3542",
"5	c #3C5864",
"6	c #6FCFDC",
"7	c #74DAE7",
"8	c #47727D",
"9	c #292C38",
"0	c #292D39",
"a	c #518A97",
"b	c #5CA4B1",
"c	c #2E3844",
"d	c #2B313D",
"e	c #65B7C5",
"f	c #6AC5D2",
"g	c #354955",
"h	c #69C3D0",
"i	c #6DCDD9",
"j	c #364D59",
"k	c #6AC5D3",
"l	c #528B96",
"m	c #5CA3B0",
"n	c #2E3744",
"o	c #3C5965",
"p	c #46717D",
"q	c #4F8593",
"r	c #78E4F2",
"s	c #5CA1AE",
"t	c #2D3642",
"u	c #2B2F3C",
"v	c #4F8490",
"w	c #70D2DF",
"x	c #72D6E3",
"y	c #2A2F3C",
"z	c #3F616D",
"A	c #5693A0",
"B	c #65BBC7",
"C	c #6CC7D4",
"D	c #68C1CD",
"E	c #5A9CA9",
"F	c #436975",
"G	c #2D3742",
"H	c #282B37",
"I	c #2B313E",
"J	c #2C3440",
"............................",
"............................",
"............................",
"............................",
"............................",
"............................",
"............................",
"............................",
"............................",
"............................",
"............................",
"..........+@#$%&*...........",
".........=-;>,')!~..........",
"........{]^/(((_:<[.........",
".......}|1(((((((234........",
".......56(((((((((789.......",
"......0a/(((((((((_bc.......",
"......de(((((((((((fg.......",
"......@h(((((((((((ij.......",
"......de(((((((((((kg.......",
"......0l/(((((((((_mn.......",
".......o6(((((((((7p9.......",
".......}q1(((((((rst........",
"........uvw/(((_x)[.........",
".........yzABCDEFG..........",
"..........HI#$%J+...........",
"............................",
"............................",
"............................",
"............................",
"............................",
"............................",
"............................",
"............................",
"............................",
"............................",
"............................"};
